<svg xmlns="http://www.w3.org/2000/svg" viewBox="0 0 900 520"><rect width="900" height="520" rx="28" fill="#f5f7fb"/><rect x="38" y="38" width="824" height="444" rx="22" fill="#fff" stroke="#dbe3ec"/><rect x="38" y="38" width="824" height="68" rx="22" fill="#172b4d"/><text x="150" y="79" font-family="Arial" font-size="19" font-weight="700" fill="#fff">Billing workflow</text><rect x="68" y="134" width="232" height="122" rx="16" fill="#f7f9fc" stroke="#dbe3ec"/><rect x="334" y="134" width="232" height="122" rx="16" fill="#f7f9fc" stroke="#dbe3ec"/><rect x="600" y="134" width="232" height="122" rx="16" fill="#eef5ff" stroke="#cfe0ff"/><text x="88" y="164" font-family="Arial" font-size="12" fill="#667085">CURRENT TRUST</text><text x="88" y="205" font-family="Arial" font-size="31" font-weight="700" fill="#172033">$2,091</text><text x="354" y="164" font-family="Arial" font-size="12" fill="#667085">WORK IN PROGRESS</text><text x="354" y="205" font-family="Arial" font-size="31" font-weight="700" fill="#172033">$1,240</text><text x="620" y="164" font-family="Arial" font-size="12" fill="#2f6bff">RECOMMENDED</text><text x="620" y="205" font-family="Arial" font-size="31" font-weight="700" fill="#172b4d">$6,149</text><path d="M300 315H600" stroke="#b9c6d5" stroke-width="3" stroke-dasharray="8 8"/><circle cx="300" cy="315" r="9" fill="#2f6bff"/><circle cx="600" cy="315" r="9" fill="#2e9b68"/><rect x="68" y="350" width="764" height="96" rx="16" fill="#f7f9fc" stroke="#dbe3ec"/><text x="90" y="380" font-family="Arial" font-size="11" font-weight="700" fill="#667085">NEXT STEP</text><text x="90" y="410" font-family="Arial" font-size="18" fill="#172033">Turn account data into one clear client follow-up.</text></svg>